inDegrees=no
nColumns=32
nRows=15
DataType=double
version=3
OpenSimVersion=4.5
endheader
time	pelvis_tilt	pelvis_list	pelvis_rotation	pelvis_tz	pelvis_ty	pelvis_tx	hip_flexion_r	hip_adduction_r	hip_rotation_r	knee_angle_r	ankle_angle_r	subtalar_angle_r	mtp_angle_r	hip_flexion_l	hip_adduction_l	hip_rotation_l	knee_angle_l	ankle_angle_l	subtalar_angle_l	mtp_angle_l	lumbar_extension	lumbar_bending	lumbar_rotation	arm_flex_r	arm_add_r	arm_rot_r	elbow_flex_r	arm_flex_l	arm_add_l	arm_rot_l	elbow_flex_l
0.26	-0.06962331927583255	0.1099883426662665	-0.1151652266453466	-0.01303220999999999	0.8671836000000001	0.31941993	0.478068424634065	-0.115976522642174	0.0444697314820236	-0.9964436128661833	0.04461273957214181	0.1263733573665185	0	0.180195187459534	0.1675751594898491	-0.2188563017479647	-0.1809229880122865	0.1306721518343337	0.1495778059541572	0	-0.03334574930713283	-0.1146354734295971	0.04012844889343074	-0.1733825603634863	-0.1259760940742929	-0.6074831461548177	0.6219547872956923	-0.1173702582834138	-0.08903339798065295	-0.6710082171274353	0.6498496763011743
0.27	-0.06649867898165246	0.1052088871415476	-0.1124324722483594	-0.01381248999999998	0.86821201	0.33036749	0.494179453192272	-0.1119187700122981	0.03373408192410891	-0.9659006754129905	0.04654075488040334	0.1116449802125377	0	0.1551541748021811	0.1675551403887958	-0.2143700002754224	-0.1666350380627953	0.1360732564642016	0.1537001286105069	0	-0.03953385309092104	-0.1076703192176908	0.03204533118500941	-0.1774539417458923	-0.127736158617563	-0.6127941200622504	0.6199627239889361	-0.1049528354636832	-0.08999609733597642	-0.6565455619887475	0.6623676934412716
0.28	-0.05724164856487313	0.09784010520481588	-0.1083786516578303	-0.0142757	0.86939288	0.34098856	0.501996088794511	-0.1049611193199119	0.02221962858030958	-0.9317674530950455	0.04641541022044702	0.09013863663065755	0	0.125024103186595	0.1645210732816312	-0.2114624805346017	-0.1558668742426464	0.1418937967000466	0.1598171114490068	0	-0.05524318068274629	-0.09934987425557712	0.01959640848840591	-0.1741714366190172	-0.1260231556558424	-0.623441468351852	0.619895567209978	-0.09530666161463372	-0.09618437547815691	-0.6273258209497459	0.6804823701036777
0.29	-0.05275933051647474	0.09525446910429788	-0.1043691163054381	-0.01489361	0.86979233	0.35203356	0.5133431914175158	-0.1029386125840791	0.0120279370637177	-0.8936809725803377	0.05267756186667912	0.08523987877475102	0	0.1006227313598835	0.1659079632179459	-0.2084864402145452	-0.1459452781873872	0.1533019272038084	0.1667570069069124	0	-0.06189873931622173	-0.0955247446934606	0.01078856706817054	-0.1765629101475118	-0.1255841508946932	-0.6330672365094188	0.613251356358233	-0.08599323758000375	-0.1027548308101076	-0.6017718701623986	0.6945646232269774
0.3	-0.05447804968033002	0.09614791274066745	-0.1025043288742422	-0.01536145	0.86912199	0.36283679	0.532889407378227	-0.1022644177249067	0.005005007392115555	-0.85524009266357	0.05789729903652971	0.08348559004957451	0	0.0840682127188826	0.169679789202976	-0.2066398048969152	-0.1377753607174081	0.1623658134867661	0.1694348884420605	0	-0.06072602169947898	-0.09527020954054119	0.005038785621794027	-0.1816129388312813	-0.1247441511528446	-0.634436410655694	0.6100217094004192	-0.07194539083038023	-0.1038951598283223	-0.5962821874549983	0.704034811687824
0.3099999999999998	-0.05508169848454747	0.09732669882141945	-0.0972811573862713	-0.01601358999999999	0.86830937	0.37361931	0.5475212388521069	-0.1018819551738038	-0.002027611823894885	-0.8106200056043431	0.06331077665453086	0.08193223741598865	0	0.06697736207819252	0.173548466649792	-0.2012281103072778	-0.1312090789912978	0.1720497834879651	0.1751582321645266	0	-0.06153066421227476	-0.09609929538951116	-0.003165658475046768	-0.1859376498676923	-0.1239502048903697	-0.6360065444555049	0.605923631112709	-0.05809171492710079	-0.1063580250026721	-0.5893087921474298	0.7151367032303723
0.3199999999999998	-0.05030184753780426	0.0960756862933166	-0.09137404690274115	-0.01677291	0.86777039	0.38471795	0.5528741195111434	-0.100663045149479	-0.01226479656917047	-0.761008877452208	0.0657140981761197	0.08152166843167753	0	0.04335063631402157	0.1753116265344905	-0.1912641673283775	-0.1254338434885773	0.1872396297104304	0.1850307013901324	0	-0.06926210715213135	-0.09334265796626193	-0.01395178243133036	-0.1863079069822701	-0.1265638750642052	-0.6385485353532244	0.6009376120301904	-0.04624886811069492	-0.110604829602729	-0.5760254961268875	0.7300191220969365
0.3299999999999998	-0.04204509658756483	0.09680298562461126	-0.08532021883463392	-0.01734516999999999	0.86724668	0.39570155	0.5541314910071286	-0.1016351961608337	-0.02282888881372746	-0.7100131342259054	0.06735688619296672	0.0880210513384931	0	0.01713318709235569	0.1783339072586835	-0.1874009445590728	-0.1207560129000467	0.2009826276535898	0.1963148379442459	0	-0.08054131018404825	-0.09428584541321272	-0.02729904825961684	-0.1843509785496201	-0.1248467215349905	-0.6410641586892695	0.5942187077187114	-0.0387423164300114	-0.1155600551431228	-0.5551130683672405	0.7472299590622465
0.3399999999999999	-0.0436803677354357	0.1027900273599226	-0.08262837898505075	-0.01734358	0.86544447	0.40644182	0.5668978248665534	-0.1023860633340463	-0.02324574203054331	-0.658509083402647	0.06901928996527688	0.09369114174935525	0	0.003309962821200435	0.185173062137631	-0.1846291430171505	-0.1180261662808156	0.2077695558235994	0.1996067545845795	0	-0.08014189280645982	-0.1013996583932235	-0.0344459151576665	-0.1878033232368031	-0.1206715450729026	-0.6411950075940878	0.5914485089126412	-0.02593310175072729	-0.1215149728159349	-0.5507703596701157	0.7561597838128317
0.3499999999999999	-0.03445089649062481	0.1039490490292873	-0.07678673578881741	-0.01793897	0.86458775	0.41763156	0.5632330254383153	-0.1039013138592648	-0.03608083191411993	-0.6030787941738419	0.07464297521292117	0.109425056667018	0	-0.02529991986004865	0.1885306434749453	-0.1782885850722665	-0.1115872902739752	0.2230711874175952	0.2114627702592575	0	-0.09293478237405246	-0.1022551985467318	-0.04626333322500251	-0.1862391933696191	-0.120086004562151	-0.6453877453845763	0.5847944006477743	-0.01782423764331224	-0.129646775611176	-0.5269613632380395	0.7728245837006137
0.3599999999999999	-0.0368489260706996	0.1122438854473466	-0.07468236136769467	-0.01792394	0.86224133	0.42859252	0.573835013493322	-0.1061341076372217	-0.03666655830243686	-0.5492929892473838	0.07291598570617387	0.1148872813310273	0	-0.03943503045427802	0.1977100489123024	-0.1757706592978722	-0.1068821725097873	0.2313498043424543	0.2154685878247135	0	-0.09074695473534521	-0.1117063704236474	-0.05245905205485011	-0.1897596163696054	-0.1160071723691682	-0.6456290729329143	0.582750818188559	-0.005066602853945237	-0.1334664002302988	-0.5229906714709774	0.7807143068851423
0.3699999999999999	-0.02695333547351394	0.1138890448509814	-0.07049547192689923	-0.01814655999999998	0.86109797	0.44016378	0.5648345877310326	-0.106221428728627	-0.04904259395508196	-0.4896413412718183	0.06924275424325353	0.1366026532235751	0	-0.07109046939609177	0.2011623195975251	-0.1710486383689445	-0.09659732317170557	0.2437018106510238	0.2292779459785605	0	-0.1028935914669581	-0.113775525097997	-0.06101280617365212	-0.190708313297406	-0.1143925857314408	-0.6509568149166026	0.5786951398824991	0.003908963834742167	-0.1416569103165234	-0.5011181126080012	0.7959681257078784
0.3799999999999999	-0.02982973365894293	0.1235797745549274	-0.06841256163541151	-0.01794098999999999	0.85833243	0.45136172	0.5727202231799201	-0.1087542693886771	-0.04844304508268802	-0.4350872750462893	0.06570491669705666	0.1460216213323304	0	-0.08556359930281829	0.2115026560941204	-0.1687104214681794	-0.09116767158752619	0.252455767299532	0.2332131531075344	0	-0.09984343539114983	-0.1253306798690187	-0.06701275770448881	-0.1944278516615073	-0.1093408406908849	-0.6516421580663722	0.5766500274676616	0.01585391939370672	-0.1456669458191827	-0.4978650843468631	0.8030764321740992
0.3899999999999999	-0.02839686269240448	0.128877012653519	-0.06784559392886613	-0.01776599999999998	0.85583084	0.46270511	0.5720683320577918	-0.1076711559285342	-0.04881696669056332	-0.3775660422782198	0.05461426821648388	0.1664206608415692	0	-0.1063509489142858	0.2179823935748755	-0.1638479982257068	-0.08334761513995319	0.2642318866879756	0.2424528818362294	0	-0.1022402553867421	-0.1313682940343171	-0.07076402859785234	-0.1962215172835368	-0.1080524340992066	-0.6549374438902937	0.5744326728722678	0.02818351235855503	-0.1510127556258206	-0.4900651698715227	0.8124002754752978
0.3999999999999999	-0.0174834700875862	0.126901873156792	-0.06655737766932723	-0.01720859	0.85442005	0.47488038	0.5558753855984778	-0.10234737776211	-0.06234965612404875	-0.3182909340789406	0.04182872840490429	0.1890236590205938	0	-0.1367722185926575	0.2160944848856272	-0.172673136731494	-0.07912512070744862	0.2764097073918668	0.2599832177272117	0	-0.1139165606169946	-0.1302318120708396	-0.0762587399478937	-0.196965413437184	-0.1036339576921931	-0.6637905476321528	0.5708936069633433	0.03574961275345442	-0.1573585905736981	-0.4720646084206656	0.821602875989348
